<svg id="visual" viewBox="0 0 900 600" width="900" height="600" xmlns="http://www.w3.org/2000/svg" xmlns:xlink="http://www.w3.org/1999/xlink" version="1.1"><g stroke-width="1" stroke-linejoin="bevel"><path d="M457 307.1L463 338.9L513 304.9Z" fill="#40a7a0" stroke="#40a7a0"></path><path d="M463 338.9L490 357.6L513 304.9Z" fill="#40a7a0" stroke="#40a7a0"></path><path d="M513 304.9L494 270.4L457 307.1Z" fill="#63bcaa" stroke="#63bcaa"></path><path d="M552 333L535 292L513 304.9Z" fill="#2b9d9b" stroke="#2b9d9b"></path><path d="M513 304.9L535 292L494 270.4Z" fill="#84d0b4" stroke="#84d0b4"></path><path d="M501 229.4L491 261.1L494 270.4Z" fill="#95dbba" stroke="#95dbba"></path><path d="M494 270.4L491 261.1L457 307.1Z" fill="#52b2a5" stroke="#52b2a5"></path><path d="M490 357.6L552 333L513 304.9Z" fill="#84d0b4" stroke="#84d0b4"></path><path d="M491 261.1L430 271.1L457 307.1Z" fill="#c7f9cc" stroke="#c7f9cc"></path><path d="M401 333L424 369.7L463 338.9Z" fill="#a5e5c0" stroke="#a5e5c0"></path><path d="M505 421.4L523 388.6L490 357.6Z" fill="#a5e5c0" stroke="#a5e5c0"></path><path d="M490 357.6L549 375.7L552 333Z" fill="#b6efc6" stroke="#b6efc6"></path><path d="M401 333L463 338.9L457 307.1Z" fill="#52b2a5" stroke="#52b2a5"></path><path d="M463 338.9L424 369.7L490 357.6Z" fill="#40a7a0" stroke="#40a7a0"></path><path d="M523 388.6L549 375.7L490 357.6Z" fill="#74c6af" stroke="#74c6af"></path><path d="M430 271.1L401 333L457 307.1Z" fill="#95dbba" stroke="#95dbba"></path><path d="M535 292L501 229.4L494 270.4Z" fill="#a5e5c0" stroke="#a5e5c0"></path><path d="M491 261.1L501 229.4L430 271.1Z" fill="#a5e5c0" stroke="#a5e5c0"></path><path d="M552 333L568 265L535 292Z" fill="#a5e5c0" stroke="#a5e5c0"></path><path d="M535 292L519 218L501 229.4Z" fill="#a5e5c0" stroke="#a5e5c0"></path><path d="M621 310.9L568 265L552 333Z" fill="#40a7a0" stroke="#40a7a0"></path><path d="M486 425.7L505 421.4L490 357.6Z" fill="#95dbba" stroke="#95dbba"></path><path d="M523 388.6L531 439.6L549 375.7Z" fill="#74c6af" stroke="#74c6af"></path><path d="M568 265L519 218L535 292Z" fill="#a5e5c0" stroke="#a5e5c0"></path><path d="M410 210.1L394 260.1L430 271.1Z" fill="#b6efc6" stroke="#b6efc6"></path><path d="M424 369.7L486 425.7L490 357.6Z" fill="#63bcaa" stroke="#63bcaa"></path><path d="M410 210.1L430 271.1L501 229.4Z" fill="#74c6af" stroke="#74c6af"></path><path d="M430 271.1L394 260.1L401 333Z" fill="#40a7a0" stroke="#40a7a0"></path><path d="M336 340.1L379 356.7L401 333Z" fill="#b6efc6" stroke="#b6efc6"></path><path d="M401 333L379 356.7L424 369.7Z" fill="#95dbba" stroke="#95dbba"></path><path d="M424 369.7L422 419.3L486 425.7Z" fill="#0a9396" stroke="#0a9396"></path><path d="M486 425.7L512 432.4L505 421.4Z" fill="#84d0b4" stroke="#84d0b4"></path><path d="M505 421.4L512 432.4L523 388.6Z" fill="#84d0b4" stroke="#84d0b4"></path><path d="M559 225.3L510 203L519 218Z" fill="#0a9396" stroke="#0a9396"></path><path d="M519 218L510 203L501 229.4Z" fill="#c7f9cc" stroke="#c7f9cc"></path><path d="M568 265L559 225.3L519 218Z" fill="#84d0b4" stroke="#84d0b4"></path><path d="M404 410.4L422 419.3L424 369.7Z" fill="#2b9d9b" stroke="#2b9d9b"></path><path d="M554 484.4L531 439.6L512 432.4Z" fill="#74c6af" stroke="#74c6af"></path><path d="M383 388.7L404 410.4L424 369.7Z" fill="#63bcaa" stroke="#63bcaa"></path><path d="M619 361.7L607 340.1L549 375.7Z" fill="#a5e5c0" stroke="#a5e5c0"></path><path d="M549 375.7L607 340.1L552 333Z" fill="#63bcaa" stroke="#63bcaa"></path><path d="M568 265L595 239.1L559 225.3Z" fill="#40a7a0" stroke="#40a7a0"></path><path d="M379 356.7L383 388.7L424 369.7Z" fill="#0a9396" stroke="#0a9396"></path><path d="M356 215.6L372 260L394 260.1Z" fill="#c7f9cc" stroke="#c7f9cc"></path><path d="M394 260.1L372 260L401 333Z" fill="#2b9d9b" stroke="#2b9d9b"></path><path d="M449 485.6L512 432.4L486 425.7Z" fill="#52b2a5" stroke="#52b2a5"></path><path d="M512 432.4L531 439.6L523 388.6Z" fill="#2b9d9b" stroke="#2b9d9b"></path><path d="M472 180.6L410 210.1L501 229.4Z" fill="#40a7a0" stroke="#40a7a0"></path><path d="M531 439.6L585 407.7L549 375.7Z" fill="#0a9396" stroke="#0a9396"></path><path d="M621 310.9L595 239.1L568 265Z" fill="#0a9396" stroke="#0a9396"></path><path d="M498 175.7L472 180.6L510 203Z" fill="#40a7a0" stroke="#40a7a0"></path><path d="M619 361.7L621 310.9L607 340.1Z" fill="#0a9396" stroke="#0a9396"></path><path d="M607 340.1L621 310.9L552 333Z" fill="#c7f9cc" stroke="#c7f9cc"></path><path d="M498 175.7L510 203L591 205.3Z" fill="#52b2a5" stroke="#52b2a5"></path><path d="M510 203L472 180.6L501 229.4Z" fill="#b6efc6" stroke="#b6efc6"></path><path d="M433 177.6L404 205.6L410 210.1Z" fill="#b6efc6" stroke="#b6efc6"></path><path d="M410 210.1L404 205.6L394 260.1Z" fill="#2b9d9b" stroke="#2b9d9b"></path><path d="M616 387.9L619 361.7L549 375.7Z" fill="#a5e5c0" stroke="#a5e5c0"></path><path d="M591 205.3L510 203L559 225.3Z" fill="#40a7a0" stroke="#40a7a0"></path><path d="M391 443.6L426 452.4L422 419.3Z" fill="#40a7a0" stroke="#40a7a0"></path><path d="M422 419.3L426 452.4L486 425.7Z" fill="#b6efc6" stroke="#b6efc6"></path><path d="M391 443.6L422 419.3L404 410.4Z" fill="#b6efc6" stroke="#b6efc6"></path><path d="M636 176.7L596 220.4L674 185.6Z" fill="#52b2a5" stroke="#52b2a5"></path><path d="M595 239.1L596 220.4L559 225.3Z" fill="#95dbba" stroke="#95dbba"></path><path d="M585 407.7L616 387.9L549 375.7Z" fill="#74c6af" stroke="#74c6af"></path><path d="M480 128.3L433 177.6L472 180.6Z" fill="#c7f9cc" stroke="#c7f9cc"></path><path d="M472 180.6L433 177.6L410 210.1Z" fill="#2b9d9b" stroke="#2b9d9b"></path><path d="M372 260L336 340.1L401 333Z" fill="#a5e5c0" stroke="#a5e5c0"></path><path d="M379 356.7L334 379.9L383 388.7Z" fill="#a5e5c0" stroke="#a5e5c0"></path><path d="M362 434.9L391 443.6L404 410.4Z" fill="#b6efc6" stroke="#b6efc6"></path><path d="M596 220.4L591 205.3L559 225.3Z" fill="#63bcaa" stroke="#63bcaa"></path><path d="M362 434.9L404 410.4L383 388.7Z" fill="#0a9396" stroke="#0a9396"></path><path d="M336 340.1L334 379.9L379 356.7Z" fill="#74c6af" stroke="#74c6af"></path><path d="M404 205.6L356 215.6L394 260.1Z" fill="#2b9d9b" stroke="#2b9d9b"></path><path d="M372 260L321 337.9L336 340.1Z" fill="#c7f9cc" stroke="#c7f9cc"></path><path d="M354 161.3L356 215.6L404 205.6Z" fill="#40a7a0" stroke="#40a7a0"></path><path d="M291 312.7L321 337.9L372 260Z" fill="#63bcaa" stroke="#63bcaa"></path><path d="M336 340.1L317 369.9L334 379.9Z" fill="#2b9d9b" stroke="#2b9d9b"></path><path d="M651 414.9L643 374L616 387.9Z" fill="#95dbba" stroke="#95dbba"></path><path d="M616 387.9L643 374L619 361.7Z" fill="#52b2a5" stroke="#52b2a5"></path><path d="M619 361.7L679 339.1L621 310.9Z" fill="#74c6af" stroke="#74c6af"></path><path d="M621 310.9L703 254.4L595 239.1Z" fill="#84d0b4" stroke="#84d0b4"></path><path d="M651 414.9L616 387.9L585 407.7Z" fill="#84d0b4" stroke="#84d0b4"></path><path d="M334 379.9L362 434.9L383 388.7Z" fill="#0a9396" stroke="#0a9396"></path><path d="M406 513.1L449 485.6L426 452.4Z" fill="#84d0b4" stroke="#84d0b4"></path><path d="M426 452.4L449 485.6L486 425.7Z" fill="#74c6af" stroke="#74c6af"></path><path d="M379 483.1L426 452.4L391 443.6Z" fill="#b6efc6" stroke="#b6efc6"></path><path d="M554 484.4L562 472.3L531 439.6Z" fill="#52b2a5" stroke="#52b2a5"></path><path d="M531 439.6L562 472.3L585 407.7Z" fill="#c7f9cc" stroke="#c7f9cc"></path><path d="M321 337.9L317 369.9L336 340.1Z" fill="#40a7a0" stroke="#40a7a0"></path><path d="M334 379.9L311 463.6L362 434.9Z" fill="#84d0b4" stroke="#84d0b4"></path><path d="M314 213L332 227.3L315 210.3Z" fill="#b6efc6" stroke="#b6efc6"></path><path d="M356 215.6L332 227.3L372 260Z" fill="#0a9396" stroke="#0a9396"></path><path d="M321 337.9L266 325L317 369.9Z" fill="#52b2a5" stroke="#52b2a5"></path><path d="M449 485.6L554 484.4L512 432.4Z" fill="#63bcaa" stroke="#63bcaa"></path><path d="M562 472.3L579 472.4L585 407.7Z" fill="#74c6af" stroke="#74c6af"></path><path d="M554 484.4L579 472.4L562 472.3Z" fill="#c7f9cc" stroke="#c7f9cc"></path><path d="M506 104.4L480 128.3L498 175.7Z" fill="#84d0b4" stroke="#84d0b4"></path><path d="M498 175.7L480 128.3L472 180.6Z" fill="#95dbba" stroke="#95dbba"></path><path d="M315 210.3L332 227.3L356 215.6Z" fill="#a5e5c0" stroke="#a5e5c0"></path><path d="M607 470.7L651 414.9L585 407.7Z" fill="#c7f9cc" stroke="#c7f9cc"></path><path d="M279 278L291 312.7L372 260Z" fill="#63bcaa" stroke="#63bcaa"></path><path d="M706 378.7L679 339.1L643 374Z" fill="#40a7a0" stroke="#40a7a0"></path><path d="M643 374L679 339.1L619 361.7Z" fill="#a5e5c0" stroke="#a5e5c0"></path><path d="M596 220.4L636 176.7L591 205.3Z" fill="#a5e5c0" stroke="#a5e5c0"></path><path d="M616 499.4L607 470.7L579 472.4Z" fill="#2b9d9b" stroke="#2b9d9b"></path><path d="M579 472.4L607 470.7L585 407.7Z" fill="#74c6af" stroke="#74c6af"></path><path d="M374 498.3L379 483.1L359 490.3Z" fill="#a5e5c0" stroke="#a5e5c0"></path><path d="M362 434.9L379 483.1L391 443.6Z" fill="#a5e5c0" stroke="#a5e5c0"></path><path d="M679 339.1L683 317.7L621 310.9Z" fill="#95dbba" stroke="#95dbba"></path><path d="M315 210.3L356 215.6L354 161.3Z" fill="#c7f9cc" stroke="#c7f9cc"></path><path d="M332 227.3L279 278L372 260Z" fill="#a5e5c0" stroke="#a5e5c0"></path><path d="M383 141.9L404 205.6L433 177.6Z" fill="#0a9396" stroke="#0a9396"></path><path d="M392 126.4L383 141.9L433 177.6Z" fill="#74c6af" stroke="#74c6af"></path><path d="M383 141.9L354 161.3L404 205.6Z" fill="#40a7a0" stroke="#40a7a0"></path><path d="M674 185.6L596 220.4L595 239.1Z" fill="#a5e5c0" stroke="#a5e5c0"></path><path d="M608 138.7L506 104.4L498 175.7Z" fill="#84d0b4" stroke="#84d0b4"></path><path d="M480 128.3L426 117.3L433 177.6Z" fill="#95dbba" stroke="#95dbba"></path><path d="M314 213L279 278L332 227.3Z" fill="#0a9396" stroke="#0a9396"></path><path d="M257 270.3L279 278L314 213Z" fill="#84d0b4" stroke="#84d0b4"></path><path d="M379 483.1L406 513.1L426 452.4Z" fill="#40a7a0" stroke="#40a7a0"></path><path d="M449 485.6L505 545.1L554 484.4Z" fill="#b6efc6" stroke="#b6efc6"></path><path d="M379 483.1L400 511.6L406 513.1Z" fill="#b6efc6" stroke="#b6efc6"></path><path d="M359 490.3L379 483.1L362 434.9Z" fill="#74c6af" stroke="#74c6af"></path><path d="M379 483.1L374 498.3L400 511.6Z" fill="#2b9d9b" stroke="#2b9d9b"></path><path d="M359 490.3L362 434.9L311 463.6Z" fill="#c7f9cc" stroke="#c7f9cc"></path><path d="M426 117.3L392 126.4L433 177.6Z" fill="#2b9d9b" stroke="#2b9d9b"></path><path d="M383 141.9L344 155.3L354 161.3Z" fill="#b6efc6" stroke="#b6efc6"></path><path d="M311 463.6L334 379.9L292 455.3Z" fill="#40a7a0" stroke="#40a7a0"></path><path d="M607 470.7L654 449.6L651 414.9Z" fill="#40a7a0" stroke="#40a7a0"></path><path d="M651 414.9L706 378.7L643 374Z" fill="#b6efc6" stroke="#b6efc6"></path><path d="M608 138.7L498 175.7L591 205.3Z" fill="#40a7a0" stroke="#40a7a0"></path><path d="M480 128.3L433 108.9L426 117.3Z" fill="#52b2a5" stroke="#52b2a5"></path><path d="M321 115.4L344 155.3L383 141.9Z" fill="#0a9396" stroke="#0a9396"></path><path d="M354 161.3L344 155.3L315 210.3Z" fill="#0a9396" stroke="#0a9396"></path><path d="M230 195.6L257 270.3L314 213Z" fill="#a5e5c0" stroke="#a5e5c0"></path><path d="M426 117.3L433 108.9L392 126.4Z" fill="#84d0b4" stroke="#84d0b4"></path><path d="M448 93.9L433 108.9L480 128.3Z" fill="#52b2a5" stroke="#52b2a5"></path><path d="M636 176.7L608 138.7L591 205.3Z" fill="#63bcaa" stroke="#63bcaa"></path><path d="M279 278L266 325L291 312.7Z" fill="#52b2a5" stroke="#52b2a5"></path><path d="M291 312.7L266 325L321 337.9Z" fill="#40a7a0" stroke="#40a7a0"></path><path d="M554 484.4L616 499.4L579 472.4Z" fill="#95dbba" stroke="#95dbba"></path><path d="M607 470.7L616 499.4L654 449.6Z" fill="#c7f9cc" stroke="#c7f9cc"></path><path d="M609 557.1L616 499.4L554 484.4Z" fill="#b6efc6" stroke="#b6efc6"></path><path d="M674 185.6L655 169.6L636 176.7Z" fill="#74c6af" stroke="#74c6af"></path><path d="M636 176.7L655 169.6L608 138.7Z" fill="#c7f9cc" stroke="#c7f9cc"></path><path d="M712 290.7L703 254.4L683 317.7Z" fill="#c7f9cc" stroke="#c7f9cc"></path><path d="M683 317.7L703 254.4L621 310.9Z" fill="#52b2a5" stroke="#52b2a5"></path><path d="M712 290.7L683 317.7L721 302.7Z" fill="#0a9396" stroke="#0a9396"></path><path d="M292 455.3L334 379.9L268 421.9Z" fill="#63bcaa" stroke="#63bcaa"></path><path d="M464 74.7L448 93.9L480 128.3Z" fill="#40a7a0" stroke="#40a7a0"></path><path d="M433 108.9L360 88.7L392 126.4Z" fill="#40a7a0" stroke="#40a7a0"></path><path d="M459 592.3L505 545.1L406 513.1Z" fill="#95dbba" stroke="#95dbba"></path><path d="M406 513.1L505 545.1L449 485.6Z" fill="#c7f9cc" stroke="#c7f9cc"></path><path d="M721 302.7L683 317.7L679 339.1Z" fill="#84d0b4" stroke="#84d0b4"></path><path d="M685 430.6L706 378.7L651 414.9Z" fill="#84d0b4" stroke="#84d0b4"></path><path d="M712 489.6L685 430.6L654 449.6Z" fill="#52b2a5" stroke="#52b2a5"></path><path d="M654 449.6L685 430.6L651 414.9Z" fill="#95dbba" stroke="#95dbba"></path><path d="M505 545.1L533 543.1L554 484.4Z" fill="#a5e5c0" stroke="#a5e5c0"></path><path d="M703 254.4L674 185.6L595 239.1Z" fill="#b6efc6" stroke="#b6efc6"></path><path d="M305 169.4L314 213L315 210.3Z" fill="#40a7a0" stroke="#40a7a0"></path><path d="M279 278L257 270.3L266 325Z" fill="#74c6af" stroke="#74c6af"></path><path d="M321 115.4L305 169.4L344 155.3Z" fill="#c7f9cc" stroke="#c7f9cc"></path><path d="M344 155.3L305 169.4L315 210.3Z" fill="#c7f9cc" stroke="#c7f9cc"></path><path d="M321 115.4L383 141.9L360 88.7Z" fill="#74c6af" stroke="#74c6af"></path><path d="M706 378.7L721 302.7L679 339.1Z" fill="#63bcaa" stroke="#63bcaa"></path><path d="M734 277.3L715 243.1L703 254.4Z" fill="#a5e5c0" stroke="#a5e5c0"></path><path d="M268 421.9L334 379.9L317 369.9Z" fill="#b6efc6" stroke="#b6efc6"></path><path d="M311 463.6L325 514.3L359 490.3Z" fill="#95dbba" stroke="#95dbba"></path><path d="M359 490.3L325 514.3L374 498.3Z" fill="#b6efc6" stroke="#b6efc6"></path><path d="M674 185.6L668 166.4L655 169.6Z" fill="#95dbba" stroke="#95dbba"></path><path d="M653 90.9L629 90.6L608 138.7Z" fill="#84d0b4" stroke="#84d0b4"></path><path d="M694 169.3L668 166.4L674 185.6Z" fill="#63bcaa" stroke="#63bcaa"></path><path d="M233 356.6L263 409.9L317 369.9Z" fill="#2b9d9b" stroke="#2b9d9b"></path><path d="M233 356.6L317 369.9L266 325Z" fill="#74c6af" stroke="#74c6af"></path><path d="M263 409.9L268 421.9L317 369.9Z" fill="#c7f9cc" stroke="#c7f9cc"></path><path d="M734 277.3L703 254.4L712 290.7Z" fill="#0a9396" stroke="#0a9396"></path><path d="M703 254.4L695 196.3L674 185.6Z" fill="#a5e5c0" stroke="#a5e5c0"></path><path d="M715 243.1L695 196.3L703 254.4Z" fill="#84d0b4" stroke="#84d0b4"></path><path d="M484 69.6L464 74.7L506 104.4Z" fill="#0a9396" stroke="#0a9396"></path><path d="M506 104.4L464 74.7L480 128.3Z" fill="#c7f9cc" stroke="#c7f9cc"></path><path d="M360 88.7L383 141.9L392 126.4Z" fill="#84d0b4" stroke="#84d0b4"></path><path d="M562 78.4L512 73.9L506 104.4Z" fill="#52b2a5" stroke="#52b2a5"></path><path d="M562 78.4L506 104.4L608 138.7Z" fill="#c7f9cc" stroke="#c7f9cc"></path><path d="M512 73.9L484 69.6L506 104.4Z" fill="#84d0b4" stroke="#84d0b4"></path><path d="M629 90.6L562 78.4L608 138.7Z" fill="#52b2a5" stroke="#52b2a5"></path><path d="M512 73.9L493 53.9L484 69.6Z" fill="#b6efc6" stroke="#b6efc6"></path><path d="M749 292L734 277.3L721 302.7Z" fill="#63bcaa" stroke="#63bcaa"></path><path d="M721 302.7L734 277.3L712 290.7Z" fill="#95dbba" stroke="#95dbba"></path><path d="M764 223.3L694 169.3L695 196.3Z" fill="#74c6af" stroke="#74c6af"></path><path d="M299 501.1L311 463.6L292 455.3Z" fill="#63bcaa" stroke="#63bcaa"></path><path d="M299 501.1L325 514.3L311 463.6Z" fill="#c7f9cc" stroke="#c7f9cc"></path><path d="M374 498.3L372 565.4L400 511.6Z" fill="#2b9d9b" stroke="#2b9d9b"></path><path d="M400 511.6L372 565.4L406 513.1Z" fill="#a5e5c0" stroke="#a5e5c0"></path><path d="M609 557.1L645 517.3L616 499.4Z" fill="#63bcaa" stroke="#63bcaa"></path><path d="M616 499.4L645 517.3L654 449.6Z" fill="#b6efc6" stroke="#b6efc6"></path><path d="M190 301.1L233 356.6L266 325Z" fill="#74c6af" stroke="#74c6af"></path><path d="M263 409.9L216 395.4L268 421.9Z" fill="#b6efc6" stroke="#b6efc6"></path><path d="M764 223.3L695 196.3L715 243.1Z" fill="#c7f9cc" stroke="#c7f9cc"></path><path d="M695 196.3L694 169.3L674 185.6Z" fill="#63bcaa" stroke="#63bcaa"></path><path d="M681 127.3L608 138.7L655 169.6Z" fill="#95dbba" stroke="#95dbba"></path><path d="M360 88.7L433 108.9L377 52.7Z" fill="#95dbba" stroke="#95dbba"></path><path d="M305 169.4L230 195.6L314 213Z" fill="#40a7a0" stroke="#40a7a0"></path><path d="M213 487.6L299 501.1L292 455.3Z" fill="#74c6af" stroke="#74c6af"></path><path d="M213 487.6L292 455.3L268 421.9Z" fill="#40a7a0" stroke="#40a7a0"></path><path d="M377 52.7L433 108.9L448 93.9Z" fill="#40a7a0" stroke="#40a7a0"></path><path d="M377 52.7L448 93.9L464 74.7Z" fill="#0a9396" stroke="#0a9396"></path><path d="M570 60.6L493 53.9L512 73.9Z" fill="#0a9396" stroke="#0a9396"></path><path d="M484 69.6L493 53.9L464 74.7Z" fill="#95dbba" stroke="#95dbba"></path><path d="M770 324.9L749 292L721 302.7Z" fill="#a5e5c0" stroke="#a5e5c0"></path><path d="M734 277.3L750 260.1L715 243.1Z" fill="#2b9d9b" stroke="#2b9d9b"></path><path d="M770 324.9L721 302.7L706 378.7Z" fill="#2b9d9b" stroke="#2b9d9b"></path><path d="M775 457.4L706 378.7L685 430.6Z" fill="#b6efc6" stroke="#b6efc6"></path><path d="M321 115.4L274 154.4L305 169.4Z" fill="#a5e5c0" stroke="#a5e5c0"></path><path d="M257 270.3L220 268.1L266 325Z" fill="#95dbba" stroke="#95dbba"></path><path d="M533 543.1L609 557.1L554 484.4Z" fill="#63bcaa" stroke="#63bcaa"></path><path d="M562 600L609 557.1L533 543.1Z" fill="#84d0b4" stroke="#84d0b4"></path><path d="M681 127.3L655 169.6L668 166.4Z" fill="#0a9396" stroke="#0a9396"></path><path d="M562 78.4L570 60.6L512 73.9Z" fill="#a5e5c0" stroke="#a5e5c0"></path><path d="M749 292L751 268.9L734 277.3Z" fill="#a5e5c0" stroke="#a5e5c0"></path><path d="M230 195.6L220 268.1L257 270.3Z" fill="#0a9396" stroke="#0a9396"></path><path d="M751 268.9L750 260.1L734 277.3Z" fill="#2b9d9b" stroke="#2b9d9b"></path><path d="M589 60.6L570 60.6L562 78.4Z" fill="#74c6af" stroke="#74c6af"></path><path d="M663 550.4L672 515.4L645 517.3Z" fill="#63bcaa" stroke="#63bcaa"></path><path d="M645 517.3L672 515.4L654 449.6Z" fill="#2b9d9b" stroke="#2b9d9b"></path><path d="M366 566.1L374 498.3L325 514.3Z" fill="#74c6af" stroke="#74c6af"></path><path d="M366 566.1L372 565.4L374 498.3Z" fill="#63bcaa" stroke="#63bcaa"></path><path d="M505 545.1L557 600L533 543.1Z" fill="#0a9396" stroke="#0a9396"></path><path d="M694 169.3L681 127.3L668 166.4Z" fill="#b6efc6" stroke="#b6efc6"></path><path d="M713 112.4L681 127.3L694 169.3Z" fill="#2b9d9b" stroke="#2b9d9b"></path><path d="M205 368.7L216 373.4L233 356.6Z" fill="#95dbba" stroke="#95dbba"></path><path d="M233 356.6L216 395.4L263 409.9Z" fill="#84d0b4" stroke="#84d0b4"></path><path d="M359 600L366 566.1L351 600Z" fill="#52b2a5" stroke="#52b2a5"></path><path d="M444 600L459 592.3L406 513.1Z" fill="#74c6af" stroke="#74c6af"></path><path d="M464 600L459 592.3L444 600Z" fill="#63bcaa" stroke="#63bcaa"></path><path d="M629 90.6L589 60.6L562 78.4Z" fill="#a5e5c0" stroke="#a5e5c0"></path><path d="M454 0L464 74.7L493 53.9Z" fill="#52b2a5" stroke="#52b2a5"></path><path d="M652 39.9L589 60.6L629 90.6Z" fill="#a5e5c0" stroke="#a5e5c0"></path><path d="M216 373.4L216 395.4L233 356.6Z" fill="#2b9d9b" stroke="#2b9d9b"></path><path d="M681 127.3L653 90.9L608 138.7Z" fill="#c7f9cc" stroke="#c7f9cc"></path><path d="M444 600L406 513.1L415 601.1Z" fill="#a5e5c0" stroke="#a5e5c0"></path><path d="M459 592.3L464 600L505 545.1Z" fill="#84d0b4" stroke="#84d0b4"></path><path d="M274 154.4L230 195.6L305 169.4Z" fill="#52b2a5" stroke="#52b2a5"></path><path d="M725 482.3L712 489.6L713 502.4Z" fill="#0a9396" stroke="#0a9396"></path><path d="M672 515.4L712 489.6L654 449.6Z" fill="#84d0b4" stroke="#84d0b4"></path><path d="M205 368.7L208 379L216 373.4Z" fill="#74c6af" stroke="#74c6af"></path><path d="M216 373.4L208 379L216 395.4Z" fill="#74c6af" stroke="#74c6af"></path><path d="M782 360L770 324.9L706 378.7Z" fill="#74c6af" stroke="#74c6af"></path><path d="M749 292L770 324.9L751 268.9Z" fill="#84d0b4" stroke="#84d0b4"></path><path d="M751 268.9L764 223.3L750 260.1Z" fill="#a5e5c0" stroke="#a5e5c0"></path><path d="M415 601.1L406 513.1L372 565.4Z" fill="#a5e5c0" stroke="#a5e5c0"></path><path d="M190 301.1L205 368.7L233 356.6Z" fill="#c7f9cc" stroke="#c7f9cc"></path><path d="M190 301.1L266 325L220 268.1Z" fill="#84d0b4" stroke="#84d0b4"></path><path d="M396 14.9L377 52.7L464 74.7Z" fill="#a5e5c0" stroke="#a5e5c0"></path><path d="M253 49.6L260 99.7L321 115.4Z" fill="#a5e5c0" stroke="#a5e5c0"></path><path d="M321 115.4L260 99.7L274 154.4Z" fill="#b6efc6" stroke="#b6efc6"></path><path d="M274 154.4L196 124.4L230 195.6Z" fill="#40a7a0" stroke="#40a7a0"></path><path d="M713 502.4L712 489.6L672 515.4Z" fill="#a5e5c0" stroke="#a5e5c0"></path><path d="M712 489.6L725 482.3L685 430.6Z" fill="#b6efc6" stroke="#b6efc6"></path><path d="M464 600L557 600L505 545.1Z" fill="#2b9d9b" stroke="#2b9d9b"></path><path d="M609 557.1L663 550.4L645 517.3Z" fill="#63bcaa" stroke="#63bcaa"></path><path d="M359 600L415 601.1L372 565.4Z" fill="#40a7a0" stroke="#40a7a0"></path><path d="M444 600L650 636.1L464 600Z" fill="#a5e5c0" stroke="#a5e5c0"></path><path d="M650 636.1L562 600L557 600Z" fill="#2b9d9b" stroke="#2b9d9b"></path><path d="M580 600L562 600L650 636.1Z" fill="#b6efc6" stroke="#b6efc6"></path><path d="M557 600L562 600L533 543.1Z" fill="#c7f9cc" stroke="#c7f9cc"></path><path d="M644 582.3L663 550.4L609 557.1Z" fill="#2b9d9b" stroke="#2b9d9b"></path><path d="M687 578.1L713 502.4L672 515.4Z" fill="#c7f9cc" stroke="#c7f9cc"></path><path d="M856 245.4L764 223.3L751 268.9Z" fill="#c7f9cc" stroke="#c7f9cc"></path><path d="M750 260.1L764 223.3L715 243.1Z" fill="#52b2a5" stroke="#52b2a5"></path><path d="M681 127.3L694 69.7L653 90.9Z" fill="#40a7a0" stroke="#40a7a0"></path><path d="M160 285.7L190 301.1L220 268.1Z" fill="#2b9d9b" stroke="#2b9d9b"></path><path d="M594 601.3L580 600L650 636.1Z" fill="#40a7a0" stroke="#40a7a0"></path><path d="M562 600L580 600L609 557.1Z" fill="#0a9396" stroke="#0a9396"></path><path d="M775 457.4L782 360L706 378.7Z" fill="#2b9d9b" stroke="#2b9d9b"></path><path d="M770 324.9L818 329.9L751 268.9Z" fill="#2b9d9b" stroke="#2b9d9b"></path><path d="M650 636.1L557 600L464 600Z" fill="#0a9396" stroke="#0a9396"></path><path d="M580 600L594 601.3L609 557.1Z" fill="#a5e5c0" stroke="#a5e5c0"></path><path d="M809 186.3L713 112.4L694 169.3Z" fill="#95dbba" stroke="#95dbba"></path><path d="M605 -10.3L570 60.6L589 60.6Z" fill="#84d0b4" stroke="#84d0b4"></path><path d="M173 369.7L185 380.4L205 368.7Z" fill="#40a7a0" stroke="#40a7a0"></path><path d="M205 368.7L185 380.4L208 379Z" fill="#52b2a5" stroke="#52b2a5"></path><path d="M208 379L185 380.4L216 395.4Z" fill="#40a7a0" stroke="#40a7a0"></path><path d="M216 395.4L185 417.3L268 421.9Z" fill="#84d0b4" stroke="#84d0b4"></path><path d="M621 600L644 582.3L609 557.1Z" fill="#84d0b4" stroke="#84d0b4"></path><path d="M663 550.4L687 578.1L672 515.4Z" fill="#40a7a0" stroke="#40a7a0"></path><path d="M366 566.1L359 600L372 565.4Z" fill="#84d0b4" stroke="#84d0b4"></path><path d="M315 579.3L366 566.1L325 514.3Z" fill="#b6efc6" stroke="#b6efc6"></path><path d="M315 579.3L325 514.3L299 501.1Z" fill="#2b9d9b" stroke="#2b9d9b"></path><path d="M258 600L315 579.3L299 501.1Z" fill="#0a9396" stroke="#0a9396"></path><path d="M775 457.4L795 359.6L782 360Z" fill="#0a9396" stroke="#0a9396"></path><path d="M782 360L795 359.6L770 324.9Z" fill="#c7f9cc" stroke="#c7f9cc"></path><path d="M315 579.3L351 600L366 566.1Z" fill="#2b9d9b" stroke="#2b9d9b"></path><path d="M359 600L650 636.1L415 601.1Z" fill="#b6efc6" stroke="#b6efc6"></path><path d="M594 601.3L621 600L609 557.1Z" fill="#95dbba" stroke="#95dbba"></path><path d="M320 10.7L321 115.4L360 88.7Z" fill="#c7f9cc" stroke="#c7f9cc"></path><path d="M139 192.3L160 285.7L220 268.1Z" fill="#c7f9cc" stroke="#c7f9cc"></path><path d="M439 0L396 14.9L464 74.7Z" fill="#a5e5c0" stroke="#a5e5c0"></path><path d="M377 52.7L320 10.7L360 88.7Z" fill="#2b9d9b" stroke="#2b9d9b"></path><path d="M496 0L493 53.9L570 60.6Z" fill="#74c6af" stroke="#74c6af"></path><path d="M185 380.4L185 417.3L216 395.4Z" fill="#74c6af" stroke="#74c6af"></path><path d="M190 301.1L173 369.7L205 368.7Z" fill="#2b9d9b" stroke="#2b9d9b"></path><path d="M149 384.9L161 427.9L185 417.3Z" fill="#0a9396" stroke="#0a9396"></path><path d="M652 39.9L629 90.6L653 90.9Z" fill="#2b9d9b" stroke="#2b9d9b"></path><path d="M605 -10.3L496 0L570 60.6Z" fill="#a5e5c0" stroke="#a5e5c0"></path><path d="M496 0L465 0L493 53.9Z" fill="#95dbba" stroke="#95dbba"></path><path d="M465 0L454 0L493 53.9Z" fill="#95dbba" stroke="#95dbba"></path><path d="M454 0L449 0L464 74.7Z" fill="#a5e5c0" stroke="#a5e5c0"></path><path d="M185 417.3L213 487.6L268 421.9Z" fill="#74c6af" stroke="#74c6af"></path><path d="M768 522.6L775 457.4L725 482.3Z" fill="#40a7a0" stroke="#40a7a0"></path><path d="M725 482.3L775 457.4L685 430.6Z" fill="#52b2a5" stroke="#52b2a5"></path><path d="M768 522.6L725 482.3L713 502.4Z" fill="#52b2a5" stroke="#52b2a5"></path><path d="M449 0L439 0L464 74.7Z" fill="#0a9396" stroke="#0a9396"></path><path d="M690 63.7L652 39.9L653 90.9Z" fill="#a5e5c0" stroke="#a5e5c0"></path><path d="M716 29.6L694 69.7L764 71.9Z" fill="#c7f9cc" stroke="#c7f9cc"></path><path d="M713 112.4L694 69.7L681 127.3Z" fill="#40a7a0" stroke="#40a7a0"></path><path d="M694 69.7L690 63.7L653 90.9Z" fill="#52b2a5" stroke="#52b2a5"></path><path d="M139 192.3L220 268.1L230 195.6Z" fill="#c7f9cc" stroke="#c7f9cc"></path><path d="M190 301.1L127 315.1L173 369.7Z" fill="#c7f9cc" stroke="#c7f9cc"></path><path d="M421 -4.1L404 0L396 14.9Z" fill="#0a9396" stroke="#0a9396"></path><path d="M396 14.9L320 10.7L377 52.7Z" fill="#2b9d9b" stroke="#2b9d9b"></path><path d="M449 0L421 -4.1L439 0Z" fill="#84d0b4" stroke="#84d0b4"></path><path d="M439 0L421 -4.1L396 14.9Z" fill="#84d0b4" stroke="#84d0b4"></path><path d="M454 0L421 -4.1L449 0Z" fill="#52b2a5" stroke="#52b2a5"></path><path d="M465 0L421 -4.1L454 0Z" fill="#b6efc6" stroke="#b6efc6"></path><path d="M671 -56.1L421 -4.1L465 0Z" fill="#84d0b4" stroke="#84d0b4"></path><path d="M691 632.1L687 578.1L644 582.3Z" fill="#84d0b4" stroke="#84d0b4"></path><path d="M644 582.3L687 578.1L663 550.4Z" fill="#2b9d9b" stroke="#2b9d9b"></path><path d="M258 600L314 600L315 579.3Z" fill="#2b9d9b" stroke="#2b9d9b"></path><path d="M315 579.3L314 600L351 600Z" fill="#84d0b4" stroke="#84d0b4"></path><path d="M26 646.1L650 636.1L359 600Z" fill="#52b2a5" stroke="#52b2a5"></path><path d="M837 387L818 329.9L795 359.6Z" fill="#0a9396" stroke="#0a9396"></path><path d="M795 359.6L818 329.9L770 324.9Z" fill="#52b2a5" stroke="#52b2a5"></path><path d="M764 223.3L809 186.3L694 169.3Z" fill="#40a7a0" stroke="#40a7a0"></path><path d="M185 417.3L159 469.4L213 487.6Z" fill="#b6efc6" stroke="#b6efc6"></path><path d="M149 384.9L185 417.3L185 380.4Z" fill="#c7f9cc" stroke="#c7f9cc"></path><path d="M149 384.9L185 380.4L173 369.7Z" fill="#63bcaa" stroke="#63bcaa"></path><path d="M127 315.1L149 384.9L173 369.7Z" fill="#a5e5c0" stroke="#a5e5c0"></path><path d="M213 93.9L196 124.4L260 99.7Z" fill="#40a7a0" stroke="#40a7a0"></path><path d="M260 99.7L196 124.4L274 154.4Z" fill="#52b2a5" stroke="#52b2a5"></path><path d="M687 578.1L754 540.3L713 502.4Z" fill="#84d0b4" stroke="#84d0b4"></path><path d="M775 457.4L837 387L795 359.6Z" fill="#52b2a5" stroke="#52b2a5"></path><path d="M684 0L628 0L652 39.9Z" fill="#84d0b4" stroke="#84d0b4"></path><path d="M652 39.9L628 0L589 60.6Z" fill="#74c6af" stroke="#74c6af"></path><path d="M496 0L671 -56.1L465 0Z" fill="#b6efc6" stroke="#b6efc6"></path><path d="M754 540.3L768 522.6L713 502.4Z" fill="#40a7a0" stroke="#40a7a0"></path><path d="M266 0L320 10.7L404 0Z" fill="#a5e5c0" stroke="#a5e5c0"></path><path d="M404 0L320 10.7L396 14.9Z" fill="#0a9396" stroke="#0a9396"></path><path d="M856 245.4L809 186.3L764 223.3Z" fill="#0a9396" stroke="#0a9396"></path><path d="M694 69.7L716 29.6L690 63.7Z" fill="#52b2a5" stroke="#52b2a5"></path><path d="M628 0L605 -10.3L589 60.6Z" fill="#c7f9cc" stroke="#c7f9cc"></path><path d="M253 49.6L213 93.9L260 99.7Z" fill="#a5e5c0" stroke="#a5e5c0"></path><path d="M320 10.7L253 49.6L321 115.4Z" fill="#c7f9cc" stroke="#c7f9cc"></path><path d="M156 89.9L172 147.7L196 124.4Z" fill="#2b9d9b" stroke="#2b9d9b"></path><path d="M196 124.4L172 147.7L230 195.6Z" fill="#a5e5c0" stroke="#a5e5c0"></path><path d="M160 285.7L127 315.1L190 301.1Z" fill="#b6efc6" stroke="#b6efc6"></path><path d="M687 578.1L725 600L754 540.3Z" fill="#52b2a5" stroke="#52b2a5"></path><path d="M621 600L650 636.1L644 582.3Z" fill="#0a9396" stroke="#0a9396"></path><path d="M594 601.3L650 636.1L621 600Z" fill="#63bcaa" stroke="#63bcaa"></path><path d="M415 601.1L650 636.1L444 600Z" fill="#40a7a0" stroke="#40a7a0"></path><path d="M26 646.1L359 600L351 600Z" fill="#40a7a0" stroke="#40a7a0"></path><path d="M839 508.3L837 387L775 457.4Z" fill="#63bcaa" stroke="#63bcaa"></path><path d="M818 329.9L856 245.4L751 268.9Z" fill="#95dbba" stroke="#95dbba"></path><path d="M107 256L127 315.1L160 285.7Z" fill="#c7f9cc" stroke="#c7f9cc"></path><path d="M144 468.6L159 469.4L161 427.9Z" fill="#40a7a0" stroke="#40a7a0"></path><path d="M144 468.6L161 427.9L115 459.4Z" fill="#0a9396" stroke="#0a9396"></path><path d="M161 427.9L159 469.4L185 417.3Z" fill="#c7f9cc" stroke="#c7f9cc"></path><path d="M248 600L258 600L299 501.1Z" fill="#52b2a5" stroke="#52b2a5"></path><path d="M248 600L299 501.1L213 487.6Z" fill="#84d0b4" stroke="#84d0b4"></path><path d="M314 600L26 646.1L351 600Z" fill="#b6efc6" stroke="#b6efc6"></path><path d="M253 49.6L202 87.9L213 93.9Z" fill="#c7f9cc" stroke="#c7f9cc"></path><path d="M213 93.9L202 87.9L196 124.4Z" fill="#95dbba" stroke="#95dbba"></path><path d="M161 492.1L164 496.3L159 469.4Z" fill="#b6efc6" stroke="#b6efc6"></path><path d="M159 469.4L164 496.3L213 487.6Z" fill="#40a7a0" stroke="#40a7a0"></path><path d="M144 468.6L161 492.1L159 469.4Z" fill="#c7f9cc" stroke="#c7f9cc"></path><path d="M247 600L248 600L213 487.6Z" fill="#a5e5c0" stroke="#a5e5c0"></path><path d="M258 600L26 646.1L314 600Z" fill="#95dbba" stroke="#95dbba"></path><path d="M113 163.6L139 192.3L172 147.7Z" fill="#2b9d9b" stroke="#2b9d9b"></path><path d="M172 147.7L139 192.3L230 195.6Z" fill="#40a7a0" stroke="#40a7a0"></path><path d="M239 600.1L247 600L213 487.6Z" fill="#c7f9cc" stroke="#c7f9cc"></path><path d="M248 600L26 646.1L258 600Z" fill="#63bcaa" stroke="#63bcaa"></path><path d="M764 71.9L694 69.7L713 112.4Z" fill="#52b2a5" stroke="#52b2a5"></path><path d="M690 63.7L684 0L652 39.9Z" fill="#74c6af" stroke="#74c6af"></path><path d="M628 0L671 -56.1L605 -10.3Z" fill="#c7f9cc" stroke="#c7f9cc"></path><path d="M691 632.1L725 600L687 578.1Z" fill="#52b2a5" stroke="#52b2a5"></path><path d="M754 540.3L787 579.1L768 522.6Z" fill="#95dbba" stroke="#95dbba"></path><path d="M780 72.4L764 71.9L713 112.4Z" fill="#40a7a0" stroke="#40a7a0"></path><path d="M112 393.7L161 427.9L149 384.9Z" fill="#84d0b4" stroke="#84d0b4"></path><path d="M166 556.1L239 600.1L213 487.6Z" fill="#2b9d9b" stroke="#2b9d9b"></path><path d="M247 600L239 600.1L248 600Z" fill="#40a7a0" stroke="#40a7a0"></path><path d="M166 556.1L213 487.6L164 496.3Z" fill="#52b2a5" stroke="#52b2a5"></path><path d="M729 0L684 0L716 29.6Z" fill="#2b9d9b" stroke="#2b9d9b"></path><path d="M716 29.6L684 0L690 63.7Z" fill="#c7f9cc" stroke="#c7f9cc"></path><path d="M650 636.1L691 632.1L644 582.3Z" fill="#a5e5c0" stroke="#a5e5c0"></path><path d="M872 275.9L856 245.4L818 329.9Z" fill="#63bcaa" stroke="#63bcaa"></path><path d="M809 186.3L780 72.4L713 112.4Z" fill="#0a9396" stroke="#0a9396"></path><path d="M103 348.9L149 384.9L127 315.1Z" fill="#84d0b4" stroke="#84d0b4"></path><path d="M103 348.9L112 393.7L149 384.9Z" fill="#95dbba" stroke="#95dbba"></path><path d="M852 68.6L780 72.4L809 186.3Z" fill="#95dbba" stroke="#95dbba"></path><path d="M764 71.9L768 52.9L716 29.6Z" fill="#52b2a5" stroke="#52b2a5"></path><path d="M139 192.3L107 256L160 285.7Z" fill="#2b9d9b" stroke="#2b9d9b"></path><path d="M96 320L103 348.9L127 315.1Z" fill="#84d0b4" stroke="#84d0b4"></path><path d="M878 328.7L871 339.1L908 348.1Z" fill="#74c6af" stroke="#74c6af"></path><path d="M837 387L871 339.1L818 329.9Z" fill="#c7f9cc" stroke="#c7f9cc"></path><path d="M878 328.7L908 348.1L900 319.1Z" fill="#95dbba" stroke="#95dbba"></path><path d="M253 49.6L169 0.7L202 87.9Z" fill="#a5e5c0" stroke="#a5e5c0"></path><path d="M320 10.7L266 0L253 49.6Z" fill="#0a9396" stroke="#0a9396"></path><path d="M212 -19.1L266 0L404 0Z" fill="#c7f9cc" stroke="#c7f9cc"></path><path d="M253 0L266 0L212 -19.1Z" fill="#b6efc6" stroke="#b6efc6"></path><path d="M780 72.4L768 52.9L764 71.9Z" fill="#0a9396" stroke="#0a9396"></path><path d="M900 253L858 208.4L856 245.4Z" fill="#0a9396" stroke="#0a9396"></path><path d="M856 245.4L858 208.4L809 186.3Z" fill="#2b9d9b" stroke="#2b9d9b"></path><path d="M878 328.7L872 275.9L818 329.9Z" fill="#95dbba" stroke="#95dbba"></path><path d="M93 310.3L96 320L127 315.1Z" fill="#52b2a5" stroke="#52b2a5"></path><path d="M72 419.6L115 459.4L112 393.7Z" fill="#40a7a0" stroke="#40a7a0"></path><path d="M144 468.6L133 488.4L161 492.1Z" fill="#2b9d9b" stroke="#2b9d9b"></path><path d="M161 492.1L133 488.4L164 496.3Z" fill="#95dbba" stroke="#95dbba"></path><path d="M115 459.4L133 488.4L144 468.6Z" fill="#a5e5c0" stroke="#a5e5c0"></path><path d="M107 256L93 310.3L127 315.1Z" fill="#2b9d9b" stroke="#2b9d9b"></path><path d="M96 320L66 345L103 348.9Z" fill="#40a7a0" stroke="#40a7a0"></path><path d="M112 393.7L115 459.4L161 427.9Z" fill="#c7f9cc" stroke="#c7f9cc"></path><path d="M839 508.3L775 457.4L768 522.6Z" fill="#2b9d9b" stroke="#2b9d9b"></path><path d="M871 339.1L878 328.7L818 329.9Z" fill="#b6efc6" stroke="#b6efc6"></path><path d="M139 192.3L99 245.9L107 256Z" fill="#0a9396" stroke="#0a9396"></path><path d="M107 256L50 265.1L93 310.3Z" fill="#b6efc6" stroke="#b6efc6"></path><path d="M92 219.4L99 245.9L139 192.3Z" fill="#63bcaa" stroke="#63bcaa"></path><path d="M266 0L253 0L253 49.6Z" fill="#c7f9cc" stroke="#c7f9cc"></path><path d="M202 87.9L156 89.9L196 124.4Z" fill="#52b2a5" stroke="#52b2a5"></path><path d="M243 0L253 0L212 -19.1Z" fill="#0a9396" stroke="#0a9396"></path><path d="M769 -2.3L766 39.6L774 0Z" fill="#0a9396" stroke="#0a9396"></path><path d="M780 72.4L766 39.6L768 52.9Z" fill="#0a9396" stroke="#0a9396"></path><path d="M768 52.9L766 39.6L716 29.6Z" fill="#74c6af" stroke="#74c6af"></path><path d="M66 345L112 393.7L103 348.9Z" fill="#63bcaa" stroke="#63bcaa"></path><path d="M173 587.1L166 556.1L105 576.3Z" fill="#b6efc6" stroke="#b6efc6"></path><path d="M133 488.4L166 556.1L164 496.3Z" fill="#84d0b4" stroke="#84d0b4"></path><path d="M768 600L754 540.3L725 600Z" fill="#40a7a0" stroke="#40a7a0"></path><path d="M774 595.1L787 579.1L754 540.3Z" fill="#40a7a0" stroke="#40a7a0"></path><path d="M691 632.1L768 600L725 600Z" fill="#a5e5c0" stroke="#a5e5c0"></path><path d="M768 600L774 595.1L754 540.3Z" fill="#63bcaa" stroke="#63bcaa"></path><path d="M212 -19.1L404 0L421 -4.1Z" fill="#b6efc6" stroke="#b6efc6"></path><path d="M253 0L243 0L253 49.6Z" fill="#95dbba" stroke="#95dbba"></path><path d="M745 0L729 0L716 29.6Z" fill="#74c6af" stroke="#74c6af"></path><path d="M684 0L671 -56.1L628 0Z" fill="#0a9396" stroke="#0a9396"></path><path d="M127 50.6L156 89.9L141 29.7Z" fill="#84d0b4" stroke="#84d0b4"></path><path d="M787 579.1L839 508.3L768 522.6Z" fill="#2b9d9b" stroke="#2b9d9b"></path><path d="M114 133.6L113 163.6L172 147.7Z" fill="#2b9d9b" stroke="#2b9d9b"></path><path d="M50 265.1L66 345L93 310.3Z" fill="#2b9d9b" stroke="#2b9d9b"></path><path d="M89 203.1L92 219.4L139 192.3Z" fill="#52b2a5" stroke="#52b2a5"></path><path d="M774 595.1L781 600L787 579.1Z" fill="#0a9396" stroke="#0a9396"></path><path d="M787 579.1L814 596.3L839 508.3Z" fill="#b6efc6" stroke="#b6efc6"></path><path d="M768 600L781 600L774 595.1Z" fill="#84d0b4" stroke="#84d0b4"></path><path d="M691 632.1L781 600L768 600Z" fill="#40a7a0" stroke="#40a7a0"></path><path d="M769 -2.3L745 0L766 39.6Z" fill="#2b9d9b" stroke="#2b9d9b"></path><path d="M766 39.6L745 0L716 29.6Z" fill="#40a7a0" stroke="#40a7a0"></path><path d="M729 0L671 -56.1L684 0Z" fill="#84d0b4" stroke="#84d0b4"></path><path d="M878 328.7L896 288L872 275.9Z" fill="#63bcaa" stroke="#63bcaa"></path><path d="M872 275.9L900 253L856 245.4Z" fill="#63bcaa" stroke="#63bcaa"></path><path d="M900 319.1L896 288L878 328.7Z" fill="#a5e5c0" stroke="#a5e5c0"></path><path d="M166 556.1L173 587.1L239 600.1Z" fill="#0a9396" stroke="#0a9396"></path><path d="M105 576.3L166 556.1L133 488.4Z" fill="#52b2a5" stroke="#52b2a5"></path><path d="M56 199.1L89 203.1L113 163.6Z" fill="#95dbba" stroke="#95dbba"></path><path d="M113 163.6L89 203.1L139 192.3Z" fill="#40a7a0" stroke="#40a7a0"></path><path d="M50 265.1L107 256L99 245.9Z" fill="#95dbba" stroke="#95dbba"></path><path d="M908 348.1L871 339.1L837 387Z" fill="#63bcaa" stroke="#63bcaa"></path><path d="M156 89.9L114 133.6L172 147.7Z" fill="#c7f9cc" stroke="#c7f9cc"></path><path d="M745 0L671 -56.1L729 0Z" fill="#52b2a5" stroke="#52b2a5"></path><path d="M605 -10.3L671 -56.1L496 0Z" fill="#74c6af" stroke="#74c6af"></path><path d="M900 319.1L900 253L896 288Z" fill="#95dbba" stroke="#95dbba"></path><path d="M896 288L900 253L872 275.9Z" fill="#2b9d9b" stroke="#2b9d9b"></path><path d="M774 0L766 39.6L843 0Z" fill="#84d0b4" stroke="#84d0b4"></path><path d="M50 265.1L99 245.9L92 219.4Z" fill="#40a7a0" stroke="#40a7a0"></path><path d="M93 310.3L66 345L96 320Z" fill="#c7f9cc" stroke="#c7f9cc"></path><path d="M127 50.6L135 80.7L156 89.9Z" fill="#95dbba" stroke="#95dbba"></path><path d="M156 89.9L135 80.7L114 133.6Z" fill="#63bcaa" stroke="#63bcaa"></path><path d="M900 436.7L908 348.1L837 387Z" fill="#c7f9cc" stroke="#c7f9cc"></path><path d="M900 319.1L908 348.1L900 253Z" fill="#0a9396" stroke="#0a9396"></path><path d="M66 345L72 419.6L112 393.7Z" fill="#63bcaa" stroke="#63bcaa"></path><path d="M115 459.4L84 476.6L133 488.4Z" fill="#74c6af" stroke="#74c6af"></path><path d="M766 39.6L780 72.4L843 0Z" fill="#74c6af" stroke="#74c6af"></path><path d="M745 0L769 -2.3L671 -56.1Z" fill="#0a9396" stroke="#0a9396"></path><path d="M852 68.6L809 186.3L900 134.7Z" fill="#b6efc6" stroke="#b6efc6"></path><path d="M769 -2.3L843 0L671 -56.1Z" fill="#95dbba" stroke="#95dbba"></path><path d="M908 348.1L900 203.4L900 253Z" fill="#a5e5c0" stroke="#a5e5c0"></path><path d="M900 253L900 203.4L858 208.4Z" fill="#74c6af" stroke="#74c6af"></path><path d="M900 645.1L814 596.3L899 654.1Z" fill="#a5e5c0" stroke="#a5e5c0"></path><path d="M781 600L814 596.3L787 579.1Z" fill="#c7f9cc" stroke="#c7f9cc"></path><path d="M900 436.9L900 436.7L837 387Z" fill="#0a9396" stroke="#0a9396"></path><path d="M900 436.9L837 387L839 508.3Z" fill="#63bcaa" stroke="#63bcaa"></path><path d="M899 464.6L900 436.9L839 508.3Z" fill="#74c6af" stroke="#74c6af"></path><path d="M900 436.7L945 541.4L908 348.1Z" fill="#a5e5c0" stroke="#a5e5c0"></path><path d="M72 419.6L84 476.6L115 459.4Z" fill="#2b9d9b" stroke="#2b9d9b"></path><path d="M671 -56.1L212 -19.1L421 -4.1Z" fill="#52b2a5" stroke="#52b2a5"></path><path d="M243 0L169 0.7L253 49.6Z" fill="#c7f9cc" stroke="#c7f9cc"></path><path d="M900 487.4L899 464.6L839 508.3Z" fill="#95dbba" stroke="#95dbba"></path><path d="M900 436.9L945 541.4L900 436.7Z" fill="#40a7a0" stroke="#40a7a0"></path><path d="M56 199.1L113 163.6L82 123.4Z" fill="#c7f9cc" stroke="#c7f9cc"></path><path d="M56 199.1L92 219.4L89 203.1Z" fill="#2b9d9b" stroke="#2b9d9b"></path><path d="M50 206.6L50 265.1L92 219.4Z" fill="#74c6af" stroke="#74c6af"></path><path d="M66 345L44 413.7L72 419.6Z" fill="#2b9d9b" stroke="#2b9d9b"></path><path d="M900 139.9L809 186.3L858 208.4Z" fill="#c7f9cc" stroke="#c7f9cc"></path><path d="M82 123.4L113 163.6L114 133.6Z" fill="#b6efc6" stroke="#b6efc6"></path><path d="M141 29.7L156 89.9L202 87.9Z" fill="#0a9396" stroke="#0a9396"></path><path d="M91 83.4L82 123.4L114 133.6Z" fill="#84d0b4" stroke="#84d0b4"></path><path d="M900 500.6L900 487.4L839 508.3Z" fill="#84d0b4" stroke="#84d0b4"></path><path d="M899 464.6L945 541.4L900 436.9Z" fill="#c7f9cc" stroke="#c7f9cc"></path><path d="M91 83.4L114 133.6L135 80.7Z" fill="#84d0b4" stroke="#84d0b4"></path><path d="M212 -19.1L169 0.7L243 0Z" fill="#b6efc6" stroke="#b6efc6"></path><path d="M169 0.7L141 29.7L202 87.9Z" fill="#84d0b4" stroke="#84d0b4"></path><path d="M0 155.3L50 206.6L56 199.1Z" fill="#63bcaa" stroke="#63bcaa"></path><path d="M56 199.1L50 206.6L92 219.4Z" fill="#84d0b4" stroke="#84d0b4"></path><path d="M900 203.4L900 139.9L858 208.4Z" fill="#74c6af" stroke="#74c6af"></path><path d="M945 541.4L900 139.9L900 203.4Z" fill="#b6efc6" stroke="#b6efc6"></path><path d="M0 303L44 413.7L66 345Z" fill="#2b9d9b" stroke="#2b9d9b"></path><path d="M72 419.6L13 447.3L84 476.6Z" fill="#84d0b4" stroke="#84d0b4"></path><path d="M0 303L66 345L50 265.1Z" fill="#2b9d9b" stroke="#2b9d9b"></path><path d="M900 559.3L900 500.6L839 508.3Z" fill="#63bcaa" stroke="#63bcaa"></path><path d="M900 487.4L945 541.4L899 464.6Z" fill="#52b2a5" stroke="#52b2a5"></path><path d="M945 541.4L900 134.7L900 139.9Z" fill="#0a9396" stroke="#0a9396"></path><path d="M900 139.9L900 134.7L809 186.3Z" fill="#84d0b4" stroke="#84d0b4"></path><path d="M127 50.6L91 83.4L135 80.7Z" fill="#b6efc6" stroke="#b6efc6"></path><path d="M82 123.4L0 155.3L56 199.1Z" fill="#c7f9cc" stroke="#c7f9cc"></path><path d="M84 56.7L91 83.4L127 50.6Z" fill="#95dbba" stroke="#95dbba"></path><path d="M900 118.3L863 55.9L852 68.6Z" fill="#c7f9cc" stroke="#c7f9cc"></path><path d="M852 68.6L843 0L780 72.4Z" fill="#a5e5c0" stroke="#a5e5c0"></path><path d="M64 600L105 576.3L0 497.6Z" fill="#74c6af" stroke="#74c6af"></path><path d="M84 476.6L105 576.3L133 488.4Z" fill="#40a7a0" stroke="#40a7a0"></path><path d="M173 587.1L26 646.1L239 600.1Z" fill="#74c6af" stroke="#74c6af"></path><path d="M945 541.4L900 118.3L900 134.7Z" fill="#84d0b4" stroke="#84d0b4"></path><path d="M900 134.7L900 118.3L852 68.6Z" fill="#63bcaa" stroke="#63bcaa"></path><path d="M169 0.7L150 0L141 29.7Z" fill="#40a7a0" stroke="#40a7a0"></path><path d="M90 0.7L84 56.7L127 50.6Z" fill="#52b2a5" stroke="#52b2a5"></path><path d="M158 -23.1L150 0L169 0.7Z" fill="#c7f9cc" stroke="#c7f9cc"></path><path d="M84 56.7L74 93.9L91 83.4Z" fill="#0a9396" stroke="#0a9396"></path><path d="M91 83.4L74 93.9L82 123.4Z" fill="#95dbba" stroke="#95dbba"></path><path d="M212 -19.1L158 -23.1L169 0.7Z" fill="#74c6af" stroke="#74c6af"></path><path d="M90 0.7L127 50.6L141 29.7Z" fill="#74c6af" stroke="#74c6af"></path><path d="M671 -56.1L158 -23.1L212 -19.1Z" fill="#0a9396" stroke="#0a9396"></path><path d="M853 9.7L843 0L852 68.6Z" fill="#2b9d9b" stroke="#2b9d9b"></path><path d="M774 0L843 0L769 -2.3Z" fill="#0a9396" stroke="#0a9396"></path><path d="M853 9.7L852 68.6L863 55.9Z" fill="#84d0b4" stroke="#84d0b4"></path><path d="M90 0.7L141 29.7L150 0Z" fill="#63bcaa" stroke="#63bcaa"></path><path d="M814 596.3L900 559.3L839 508.3Z" fill="#a5e5c0" stroke="#a5e5c0"></path><path d="M900 500.6L945 541.4L900 487.4Z" fill="#40a7a0" stroke="#40a7a0"></path><path d="M900 30.6L853 9.7L863 55.9Z" fill="#0a9396" stroke="#0a9396"></path><path d="M0 293.1L50 265.1L1 275.3Z" fill="#74c6af" stroke="#74c6af"></path><path d="M0 293.1L0 303L50 265.1Z" fill="#84d0b4" stroke="#84d0b4"></path><path d="M44 413.7L13 447.3L72 419.6Z" fill="#84d0b4" stroke="#84d0b4"></path><path d="M50 265.1L0 267.9L1 275.3Z" fill="#a5e5c0" stroke="#a5e5c0"></path><path d="M50 265.1L50 206.6L0 267.9Z" fill="#74c6af" stroke="#74c6af"></path><path d="M0 267.9L50 206.6L0 155.3Z" fill="#2b9d9b" stroke="#2b9d9b"></path><path d="M0 155.3L82 123.4L0 123.6Z" fill="#95dbba" stroke="#95dbba"></path><path d="M1 275.3L-51 344.6L0 293.1Z" fill="#2b9d9b" stroke="#2b9d9b"></path><path d="M0 442.3L13 447.3L44 413.7Z" fill="#c7f9cc" stroke="#c7f9cc"></path><path d="M-51 344.6L0 442.3L44 413.7Z" fill="#63bcaa" stroke="#63bcaa"></path><path d="M13 447.3L0 492.1L84 476.6Z" fill="#0a9396" stroke="#0a9396"></path><path d="M814 596.3L900 600L900 559.3Z" fill="#c7f9cc" stroke="#c7f9cc"></path><path d="M900 559.3L945 541.4L900 500.6Z" fill="#63bcaa" stroke="#63bcaa"></path><path d="M900 645.1L900 600L814 596.3Z" fill="#40a7a0" stroke="#40a7a0"></path><path d="M945 541.4L900 30.6L900 118.3Z" fill="#c7f9cc" stroke="#c7f9cc"></path><path d="M900 118.3L900 30.6L863 55.9Z" fill="#74c6af" stroke="#74c6af"></path><path d="M853 9.7L900 0L843 0Z" fill="#a5e5c0" stroke="#a5e5c0"></path><path d="M0 442.3L0 456.7L13 447.3Z" fill="#84d0b4" stroke="#84d0b4"></path><path d="M900 645.1L905 600L900 600Z" fill="#52b2a5" stroke="#52b2a5"></path><path d="M900 600L905 600L900 559.3Z" fill="#63bcaa" stroke="#63bcaa"></path><path d="M0 497.6L105 576.3L84 476.6Z" fill="#84d0b4" stroke="#84d0b4"></path><path d="M105 576.3L64 600L173 587.1Z" fill="#a5e5c0" stroke="#a5e5c0"></path><path d="M239 600.1L26 646.1L248 600Z" fill="#0a9396" stroke="#0a9396"></path><path d="M158 -23.1L90 0.7L150 0Z" fill="#2b9d9b" stroke="#2b9d9b"></path><path d="M0 123.6L82 123.4L74 93.9Z" fill="#74c6af" stroke="#74c6af"></path><path d="M905 600L945 541.4L900 559.3Z" fill="#95dbba" stroke="#95dbba"></path><path d="M908 348.1L945 541.4L900 203.4Z" fill="#95dbba" stroke="#95dbba"></path><path d="M0 123.6L74 93.9L0 97.4Z" fill="#c7f9cc" stroke="#c7f9cc"></path><path d="M90 0.7L80 0L84 56.7Z" fill="#40a7a0" stroke="#40a7a0"></path><path d="M158 -23.1L80 0L90 0.7Z" fill="#b6efc6" stroke="#b6efc6"></path><path d="M0 456.7L0 492.1L13 447.3Z" fill="#52b2a5" stroke="#52b2a5"></path><path d="M0 492.1L0 493.4L84 476.6Z" fill="#0a9396" stroke="#0a9396"></path><path d="M0 493.4L0 497.6L84 476.6Z" fill="#40a7a0" stroke="#40a7a0"></path><path d="M945 541.4L900 0L900 30.6Z" fill="#52b2a5" stroke="#52b2a5"></path><path d="M900 30.6L900 0L853 9.7Z" fill="#b6efc6" stroke="#b6efc6"></path><path d="M843 0L900 0L671 -56.1Z" fill="#c7f9cc" stroke="#c7f9cc"></path><path d="M0 97.4L74 93.9L0 59.7Z" fill="#95dbba" stroke="#95dbba"></path><path d="M905 600L900 645.1L945 541.4Z" fill="#b6efc6" stroke="#b6efc6"></path><path d="M899 654.1L814 596.3L781 600Z" fill="#2b9d9b" stroke="#2b9d9b"></path><path d="M899 654.1L781 600L691 632.1Z" fill="#74c6af" stroke="#74c6af"></path><path d="M26 646.1L899 654.1L650 636.1Z" fill="#b6efc6" stroke="#b6efc6"></path><path d="M650 636.1L899 654.1L691 632.1Z" fill="#2b9d9b" stroke="#2b9d9b"></path><path d="M900 645.1L899 654.1L945 541.4Z" fill="#b6efc6" stroke="#b6efc6"></path><path d="M0 59.7L74 93.9L84 56.7Z" fill="#74c6af" stroke="#74c6af"></path><path d="M0 442.3L-51 344.6L0 456.7Z" fill="#74c6af" stroke="#74c6af"></path><path d="M0 456.7L-51 344.6L0 492.1Z" fill="#63bcaa" stroke="#63bcaa"></path><path d="M0 492.1L-51 344.6L0 493.4Z" fill="#b6efc6" stroke="#b6efc6"></path><path d="M0 493.4L-51 344.6L0 497.6Z" fill="#52b2a5" stroke="#52b2a5"></path><path d="M0 303L-51 344.6L44 413.7Z" fill="#c7f9cc" stroke="#c7f9cc"></path><path d="M0 293.1L-51 344.6L0 303Z" fill="#40a7a0" stroke="#40a7a0"></path><path d="M0 267.9L-51 344.6L1 275.3Z" fill="#74c6af" stroke="#74c6af"></path><path d="M-39 160.3L-51 344.6L0 267.9Z" fill="#95dbba" stroke="#95dbba"></path><path d="M-39 160.3L0 267.9L0 155.3Z" fill="#74c6af" stroke="#74c6af"></path><path d="M-39 160.3L0 155.3L0 123.6Z" fill="#40a7a0" stroke="#40a7a0"></path><path d="M80 0L52 0L84 56.7Z" fill="#74c6af" stroke="#74c6af"></path><path d="M158 -23.1L52 0L80 0Z" fill="#40a7a0" stroke="#40a7a0"></path><path d="M0 59.7L-39 160.3L0 97.4Z" fill="#2b9d9b" stroke="#2b9d9b"></path><path d="M0 97.4L-39 160.3L0 123.6Z" fill="#63bcaa" stroke="#63bcaa"></path><path d="M0 54.9L0 59.7L84 56.7Z" fill="#2b9d9b" stroke="#2b9d9b"></path><path d="M52 0L0 54.9L84 56.7Z" fill="#40a7a0" stroke="#40a7a0"></path><path d="M0 59.7L-20 0L-39 160.3Z" fill="#0a9396" stroke="#0a9396"></path><path d="M0 497.6L10 600L64 600Z" fill="#0a9396" stroke="#0a9396"></path><path d="M64 600L26 646.1L173 587.1Z" fill="#84d0b4" stroke="#84d0b4"></path><path d="M0 600L10 600L0 497.6Z" fill="#40a7a0" stroke="#40a7a0"></path><path d="M-18 600L0 600L0 497.6Z" fill="#84d0b4" stroke="#84d0b4"></path><path d="M10 600L26 646.1L64 600Z" fill="#52b2a5" stroke="#52b2a5"></path><path d="M0 600L26 646.1L10 600Z" fill="#74c6af" stroke="#74c6af"></path><path d="M-51 344.6L-18 600L0 497.6Z" fill="#a5e5c0" stroke="#a5e5c0"></path><path d="M0 600L-18 600L26 646.1Z" fill="#b6efc6" stroke="#b6efc6"></path><path d="M158 -23.1L0 0L52 0Z" fill="#b6efc6" stroke="#b6efc6"></path><path d="M52 0L0 0L0 54.9Z" fill="#74c6af" stroke="#74c6af"></path><path d="M0 54.9L-20 0L0 59.7Z" fill="#b6efc6" stroke="#b6efc6"></path><path d="M158 -23.1L-20 0L0 0Z" fill="#2b9d9b" stroke="#2b9d9b"></path><path d="M0 0L-20 0L0 54.9Z" fill="#0a9396" stroke="#0a9396"></path></g></svg>